<svg xmlns="http://www.w3.org/2000/svg" width="60" height="60" viewBox="0 0 100 100">
  <defs>
    <linearGradient id="grad1" x1="0%" y1="0%" x2="100%" y2="100%">
      <stop offset="0%" style="stop-color:#F89928;stop-opacity:1" />
      <stop offset="100%" style="stop-color:#FFC107;stop-opacity:1" />
    </linearGradient>
  </defs>
  
  <!-- Hexagon Base -->
  <path d="M50 5L95 30V70L50 95L5 70V30L50 5Z" fill="#131635" stroke="url(#grad1)" stroke-width="4"/>
  
  <!-- Circuit Paths -->
  <g stroke="url(#grad1)" stroke-width="3" fill="none" stroke-linecap="round">
    <path d="M35 35H45V45"/>
    <path d="M55 35H65V45"/>
    <path d="M35 55H45V65"/>
    <path d="M55 55H65V65"/>
    <path d="M45 45V55H55"/>
  </g>
  
  <!-- Central X Symbol -->
  <path d="M50 45L55 50L50 55L45 50L50 45Z" fill="#F89928"/>
  <path d="M45 45L55 55M55 45L45 55" stroke="#F89928" stroke-width="2"/>
  
  <!-- Radiating Lines -->
  <g stroke="url(#grad1)" stroke-width="2" opacity="0.8">
    <path d="M50 20V30"/>
    <path d="M70 40H80"/>
    <path d="M70 60H80"/>
    <path d="M50 80V70"/>
    <path d="M20 40H30"/>
    <path d="M20 60H30"/>
  </g>
</svg>